<?xml version="1.0" standalone="no"?>
<!DOCTYPE svg PUBLIC "-//W3C//DTD SVG 20010904//EN"
 "http://www.w3.org/TR/2001/REC-SVG-20010904/DTD/svg10.dtd">
<svg version="1.0" xmlns="http://www.w3.org/2000/svg"
 width="400.000000pt" height="400.000000pt" viewBox="0 0 400.000000 400.000000"
 preserveAspectRatio="xMidYMid meet">
<metadata>
Created by potrace 1.14, written by Peter Selinger 2001-2017
</metadata>
<g transform="translate(0.000000,400.000000) scale(0.100000,-0.100000)"
fill="#000000" stroke="none">
<path d="M1800 3990 c0 -5 -18 -19 -40 -30 -39 -20 -40 -22 -40 -70 0 -43 -3
-50 -20 -50 -16 0 -20 -7 -20 -30 0 -16 -5 -30 -11 -30 -6 0 -9 -7 -5 -15 3
-10 -6 -23 -29 -38 -19 -12 -35 -29 -35 -37 0 -8 -9 -21 -20 -28 -11 -7 -20
-23 -20 -36 0 -16 -7 -27 -20 -31 -11 -3 -20 -13 -20 -21 0 -23 -33 -54 -57
-54 -13 0 -23 -4 -23 -9 0 -5 -9 -11 -21 -14 -12 -3 -18 -10 -15 -16 4 -6 -5
-13 -19 -17 -27 -7 -33 -19 -12 -27 6 -2 -8 -10 -32 -16 -23 -7 -49 -10 -56
-7 -8 3 -19 -1 -25 -9 -6 -7 -31 -19 -55 -26 -25 -7 -45 -16 -45 -20 0 -4 -24
-10 -52 -14 -29 -4 -59 -12 -67 -19 -8 -6 -15 -10 -15 -8 -1 2 -8 1 -16 -2
-14 -5 -113 -28 -379 -91 -63 -14 -132 -27 -152 -28 -23 -1 -33 -4 -26 -9 12
-7 -62 -13 -111 -9 -13 1 -21 -2 -18 -7 3 -5 -13 -14 -35 -21 -22 -7 -49 -21
-60 -32 -11 -11 -24 -17 -29 -14 -9 6 -40 -32 -40 -50 0 -5 5 -3 10 5 5 8 10
10 10 4 0 -6 -3 -14 -7 -18 -15 -15 -28 -119 -18 -144 4 -9 7 -46 7 -82 0 -50
1 -58 8 -35 7 29 8 29 9 -11 1 -49 20 -106 31 -99 5 3 14 -3 20 -12 9 -15 10
-13 6 12 -3 17 -17 101 -31 187 -25 152 -26 159 -9 194 27 57 -1 50 599 150
182 30 357 59 390 64 33 5 521 86 1083 180 l1024 171 36 -18 c21 -10 43 -30
49 -44 7 -14 96 -523 197 -1130 102 -607 197 -1171 211 -1253 14 -82 25 -162
25 -177 0 -38 -19 -76 -46 -94 -14 -9 -182 -42 -411 -81 -214 -35 -426 -71
-472 -79 -46 -8 -99 -15 -118 -15 l-34 0 15 29 c26 49 80 88 141 101 43 9 55
15 51 27 -3 8 -9 32 -12 53 l-6 37 52 13 c38 9 50 16 46 27 -4 8 -9 32 -12 52
l-6 38 48 13 c27 7 50 14 51 15 1 0 -4 24 -11 52 l-14 52 54 11 c44 9 54 15
50 28 -3 9 -76 316 -161 682 -85 366 -165 702 -176 748 -11 45 -19 90 -17 99
2 9 21 21 43 28 l40 11 -3 56 -3 57 47 7 46 7 -6 41 c-11 64 -58 260 -66 269
-3 4 -52 -3 -108 -17 l-101 -23 -6 31 c-16 79 -6 77 -178 36 -69 -16 -133 -30
-141 -30 -9 0 -17 14 -21 38 -3 20 -9 42 -13 48 -5 8 -55 0 -160 -24 l-154
-36 6 -27 c3 -15 8 -38 11 -52 6 -22 3 -27 -17 -31 -12 -3 -81 -19 -151 -36
-71 -16 -132 -28 -137 -25 -4 3 -11 25 -14 50 -4 25 -9 45 -11 45 -2 0 -27 -5
-55 -11 -48 -10 -51 -13 -45 -36 20 -83 22 -79 -35 -93 l-52 -12 7 -35 c3 -19
9 -41 12 -49 7 -19 -24 -19 -43 1 -19 18 -38 11 -52 -20 -8 -17 -25 -28 -57
-36 -40 -10 -45 -14 -45 -40 0 -15 -4 -30 -9 -33 -5 -3 -7 -14 -4 -25 3 -14
-3 -21 -28 -30 -38 -13 -42 -10 -58 47 -10 36 -15 41 -34 37 -146 -34 -182
-44 -181 -51 1 -5 5 -30 8 -55 l7 -46 -48 -9 c-38 -7 -49 -14 -51 -30 -2 -14
-17 -28 -42 -39 -32 -15 -41 -24 -46 -53 -4 -21 -21 -50 -40 -69 -39 -39 -43
-70 -20 -162 31 -123 31 -133 -8 -171 -41 -42 -42 -46 -31 -133 l8 -69 -37
-37 c-22 -22 -36 -47 -36 -61 0 -40 66 -309 80 -325 7 -8 30 -20 51 -25 45
-12 62 -35 78 -105 38 -167 61 -249 76 -265 9 -10 32 -21 51 -24 42 -8 55 -32
85 -150 25 -101 45 -131 93 -140 22 -4 43 -18 60 -40 17 -23 37 -36 61 -40 21
-4 47 -19 62 -36 14 -16 42 -35 62 -41 20 -7 53 -27 74 -45 20 -19 40 -34 45
-35 31 -3 48 -12 82 -43 22 -20 46 -36 53 -37 26 -2 -134 -32 -533 -100 -228
-39 -431 -73 -451 -76 -41 -6 -91 16 -113 50 -8 12 -31 114 -50 227 -101 587
-118 689 -126 740 -4 30 -16 98 -25 150 -9 52 -24 145 -35 205 -40 238 -53
306 -61 311 -4 2 -6 10 -3 18 3 7 0 39 -6 72 -15 82 -18 95 -29 129 -9 25 -9
23 -4 -19 4 -37 3 -47 -6 -41 -10 5 -11 -5 -8 -40 5 -45 -5 -51 -17 -10 -3 11
-3 1 0 -21 7 -53 -9 -64 -30 -21 -14 28 -16 29 -16 9 0 -13 5 -32 10 -43 9
-16 7 -19 -10 -19 -17 0 -20 -6 -20 -40 0 -22 -4 -40 -10 -40 -5 0 -10 -18
-10 -40 0 -29 -4 -40 -15 -40 -12 0 -15 -14 -15 -64 0 -73 -6 -96 -26 -96 -10
0 -14 -12 -14 -40 0 -22 -4 -40 -10 -40 -5 0 -10 -18 -10 -40 0 -28 -4 -40
-14 -40 -14 0 -26 -58 -26 -124 -1 -19 -7 -30 -20 -33 -20 -5 -20 -18 -20
-724 l0 -719 2000 0 2000 0 0 2000 0 2000 -1100 0 c-711 0 -1100 -3 -1100 -10z
m-90 -220 c0 -5 -7 -10 -15 -10 -8 0 -15 5 -15 10 0 6 7 10 15 10 8 0 15 -4
15 -10z m-1510 -684 c0 -3 -4 -8 -10 -11 -5 -3 -10 -1 -10 4 0 6 5 11 10 11 6
0 10 -2 10 -4z m2569 -552 c7 -30 11 -58 8 -60 -3 -4 -109 -30 -233 -59 -20
-4 -21 -9 -13 -42 12 -53 11 -73 -3 -73 -7 0 -29 -5 -49 -10 l-36 -10 11 -50
c11 -55 16 -57 79 -39 35 9 38 13 32 36 -21 85 -28 77 82 101 54 12 112 25
129 28 l30 6 41 -169 c23 -92 40 -169 38 -171 -1 -2 -47 -14 -100 -27 -54 -14
-99 -26 -101 -27 -2 -3 18 -99 37 -169 l9 -37 102 24 c55 14 102 23 104 22 1
-2 14 -57 28 -123 15 -66 35 -158 46 -205 39 -167 52 -232 46 -238 -4 -3 -19
-8 -33 -10 -51 -6 -63 -19 -52 -54 16 -56 12 -67 -26 -74 -52 -9 -66 -27 -54
-66 5 -18 9 -38 9 -45 0 -7 -57 -25 -140 -44 -77 -18 -145 -36 -151 -40 -8 -5
-9 -21 -3 -55 l9 -49 -135 -32 c-74 -18 -142 -32 -152 -33 -11 0 -18 12 -23
41 -4 22 -14 43 -22 46 -8 3 -55 -4 -105 -16 -101 -25 -102 -25 -112 40 -3 22
-10 39 -14 39 -4 0 -51 -11 -105 -24 -54 -13 -99 -20 -102 -16 -2 4 -7 26 -11
50 -7 42 -7 42 -43 36 -20 -3 -45 -7 -55 -8 -16 -2 -21 5 -28 37 -14 66 -12
65 -64 49 -26 -8 -49 -13 -50 -11 -2 2 -14 48 -28 103 -26 107 -19 101 -96 89
l-35 -6 -28 113 c-57 229 -107 442 -107 458 0 12 23 21 97 38 53 12 101 18
105 14 8 -8 59 -226 72 -307 10 -61 17 -67 65 -59 24 4 45 13 48 21 3 8 -11
83 -30 166 -40 165 -86 363 -123 526 -13 57 -26 112 -29 122 -5 15 18 23 172
59 98 23 250 59 338 80 88 20 203 47 255 59 229 53 319 74 385 91 103 27 100
28 114 -36z m-2472 -346 c-3 -8 -6 -5 -6 6 -1 11 2 17 5 13 3 -3 4 -12 1 -19z"/>
<path d="M1970 2170 l-195 -47 2 -43 c1 -24 6 -47 12 -53 5 -5 81 8 203 37
107 25 198 46 201 46 4 0 7 8 7 18 0 27 -20 92 -28 91 -4 -1 -95 -23 -202 -49z"/>
<path d="M2148 1847 c-62 -14 -88 -25 -88 -35 0 -33 42 -192 51 -192 6 0 53
10 105 22 l94 21 -6 34 c-18 95 -41 168 -55 169 -8 1 -53 -7 -101 -19z"/>
<path d="M2400 1284 c-102 -25 -190 -46 -197 -49 -8 -3 -8 -16 1 -52 10 -37
17 -48 32 -46 10 0 104 21 207 45 l188 43 -6 35 c-10 56 -16 70 -28 69 -7 -1
-95 -21 -197 -45z"/>
<path d="M412 2945 c-12 -14 -17 -25 -11 -25 5 0 7 -5 3 -12 -5 -7 -3 -8 6 -3
7 4 16 2 21 -6 6 -11 12 -10 28 6 12 10 19 21 16 23 -3 3 -12 -3 -21 -14 -15
-19 -16 -19 -9 1 19 53 1 69 -33 30z"/>
</g>
</svg>
